<svg xmlns="http://www.w3.org/2000/svg" version="1.1" xmlns:xlink="http://www.w3.org/1999/xlink" xmlns:svgjs="http://svgjs.dev/svgjs" width="3840" height="2000" preserveAspectRatio="none" viewBox="0 0 3840 2000"><g mask="url(&quot;#SvgjsMask1125&quot;)" fill="none"><rect width="3840" height="2000" x="0" y="0" fill="rgba(14, 14, 14, 1)"></rect><path d="M0,1493.523C277.566,1488.181,541.549,1347.088,742.878,1155.94C926.192,981.895,984.278,725.551,1062.162,485.073C1131.63,270.579,1188.297,56.378,1171.82,-168.482C1154.436,-405.719,1099.459,-640.011,965.326,-836.459C820.955,-1047.901,637.612,-1265.638,386.981,-1317.936C139.652,-1369.545,-76.901,-1155.221,-324.643,-1105.631C-606.207,-1049.271,-937.814,-1185.942,-1162.941,-1007.694C-1389.817,-828.061,-1433.137,-497.852,-1456.552,-209.421C-1479.026,67.42,-1416.584,341.764,-1292.668,590.342C-1171.652,833.103,-983.84,1029.537,-761.486,1184.895C-532.333,1345.003,-279.494,1498.903,0,1493.523" fill="#0a0a0a"></path><path d="M3840 3574.819C4128.113 3541.385 4287.878 3233.388 4532.823 3078.054 4779.84 2921.407 5132.273999999999 2909.571 5283.674 2659.304 5437.166 2405.578 5347.758 2082.709 5313.126 1788.1970000000001 5277.624 1486.286 5282.932 1151.867 5079.818 925.692 4877.486 700.387 4545.981 667.4760000000001 4249.846 604.193 3973.671 545.175 3696.796 512.9559999999999 3420.433 571.088 3127.2889999999998 632.75 2802.096 705.4449999999999 2623.866 946.2139999999999 2447.757 1184.1190000000001 2563.0730000000003 1517.826 2504.7889999999998 1808.026 2441.804 2121.63 2157.678 2417.666 2268.038 2717.891 2377.784 3016.443 2756.23 3099.562 3035.5119999999997 3251.808 3294.478 3392.9790000000003 3547.021 3608.817 3840 3574.819" fill="#121212"></path></g><defs><mask id="SvgjsMask1125"><rect width="3840" height="2000" fill="#ffffff"></rect></mask></defs></svg>