<svg xmlns="http://www.w3.org/2000/svg" version="1.1" xmlns:xlink="http://www.w3.org/1999/xlink" xmlns:svgjs="http://svgjs.dev/svgjs" width="3840" height="2000" preserveAspectRatio="none" viewBox="0 0 3840 2000"><g mask="url(&quot;#SvgjsMask1046&quot;)" fill="none"><rect width="3840" height="2000" x="0" y="0" fill="rgba(255, 245, 226, 1)"></rect><path d="M0,908.707C172.394,918.281,339.834,847.997,482.077,750.127C621.495,654.201,739.225,522.708,793.817,362.524C845.884,209.75,810.629,46.053,775.738,-111.534C743.079,-259.04,666.63,-383.827,598.69,-518.767C506.776,-701.322,503.367,-988.921,306.438,-1043.634C108.465,-1098.637,-23.638,-809.516,-219.032,-745.956C-405.423,-685.325,-652.723,-824.179,-792.042,-686.308C-929.181,-550.595,-857.842,-314.881,-849.413,-122.127C-842.36,39.149,-817.925,196.125,-747.109,341.193C-677.652,483.476,-574.932,602.653,-448.851,698.426C-314.563,800.433,-168.379,899.356,0,908.707" fill="#ffedca"></path><path d="M3840 3163.291C4072.373 3167.946 4324.107 3182.673 4513.279 3047.643 4700.136 2914.265 4781.213 2677.3379999999997 4833.856 2453.879 4880.062 2257.746 4801.591 2064.364 4792.344 1863.074 4781.8189999999995 1633.965 4921.785 1366.017 4775.759 1189.1599999999999 4630.355 1013.056 4343.435 1092.902 4119.487 1048.154 3919.125 1008.119 3731.3559999999998 913.529 3528.754 939.9939999999999 3305.455 969.162 3067.423 1032.604 2922.027 1204.5720000000001 2777.053 1376.0410000000002 2795.77 1623.011 2763.408 1845.209 2730.982 2067.845 2656.764 2293.923 2732.514 2505.772 2810.975 2725.2039999999997 2983.452 2902.045 3183.835 3021.013 3380.256 3137.629 3611.615 3158.716 3840 3163.291" fill="#fffdfa"></path></g><defs><mask id="SvgjsMask1046"><rect width="3840" height="2000" fill="#ffffff"></rect></mask></defs></svg>